# xmcd
#
# Track frame offsets: 
#        150
#        22279
#        42712
#        61136
#        85686
#        103759
#
# Disc length: 1671 seconds
#
# Revision: 0
# Processed by: cddbd v1.5.2PL0 Copyright (c) Steve Scherf et al.
# Submitted via: ExactAudioCopy v0.99pb5
#
DISCID=4d068506
DTITLE=Jewly - No shoes
DYEAR=2011
DGENRE=Blues
TTITLE0=Tom's song
TTITLE1=No shoes
TTITLE2=Interference
TTITLE3=Now I know
TTITLE4=24 heures
TTITLE5=Big John Big Suzy
EXTD=
EXTT0=
EXTT1=
EXTT2=
EXTT3=
EXTT4=
EXTT5=
PLAYORDER=
